<svg width="31" height="22" viewBox="0 0 31 22" fill="none" xmlns="http://www.w3.org/2000/svg">
<path d="M17.2629 12.5925H1.81623C0.813155 12.5925 0 11.7794 0 10.7763C0 9.77322 0.813157 8.96006 1.81623 8.96006H17.2629C19.0751 8.96006 19.953 6.74303 18.6323 5.50234L16.4556 3.4577C15.1349 2.21702 16.0129 -1.71661e-05 17.825 -1.71661e-05H18.7929C19.3035 -1.71661e-05 19.7947 0.195278 20.166 0.545843L29.4601 9.32216C30.2959 10.1114 30.2959 11.4412 29.4601 12.2304L20.166 21.0068C19.7947 21.3573 19.3035 21.5526 18.7929 21.5526H17.825C16.0129 21.5526 15.1349 19.3356 16.4556 18.0949L18.6323 16.0502C19.953 14.8096 19.075 12.5925 17.2629 12.5925Z" fill="black"/>
</svg>
