<svg width="26" height="26" viewBox="0 0 26 26" fill="none" xmlns="http://www.w3.org/2000/svg">
<path d="M13 26C13.8479 26 14.5426 25.3765 14.6603 24.4941C15.826 16.6353 16.8977 15.5412 24.4575 14.6824C25.3288 14.5765 26 13.8471 26 13.0001C26 12.1412 25.3406 11.4353 24.4692 11.3059C16.9566 10.2588 16.0263 9.34117 14.6603 1.49418C14.5073 0.623581 13.836 -1.19209e-06 13 -1.19209e-06C12.1405 -1.19209e-06 11.4574 0.623581 11.3161 1.50588C10.174 9.35299 9.10236 10.4471 1.55434 11.3059C0.659417 11.4236 1.03978e-05 12.1295 1.03978e-05 13.0001C1.03978e-05 13.8471 0.635875 14.553 1.5308 14.6824C9.05516 15.753 9.9737 16.6588 11.3161 24.5059C11.4928 25.3882 12.1757 26 13 26Z" fill="white"/>
</svg>
