<svg width="55" height="56" viewBox="0 0 55 56" fill="none" xmlns="http://www.w3.org/2000/svg">
<path d="M44.974 51.3333L40.2944 47.1333L37.6567 44.6367L34.8677 42L36.0135 46.1043H11.3369C8.86558 46.0953 6.86866 44.0496 6.87498 41.5333V11.5663C6.87119 9.05192 8.86737 7.009 11.3369 7H40.5121C42.9816 7.009 44.9778 9.05192 44.974 11.5663V51.3333ZM34.6042 31.5187C33.6379 32.8382 32.2467 33.7699 30.674 34.1507C31.3202 34.9907 32.0994 35.9403 32.1063 35.9497C34.735 36.0062 37.2241 34.7474 38.7681 32.5803C38.6891 28.088 37.6176 23.6714 35.6331 19.6583C33.886 18.2625 31.7594 17.4478 29.5419 17.325H29.5167L29.2119 17.6797C31.1926 18.2214 33.0397 19.18 34.634 20.4937C32.6054 19.3583 30.3794 18.6355 28.0798 18.3657C26.6182 18.2004 25.1424 18.2153 23.6844 18.41C23.5813 18.4121 23.4786 18.423 23.3773 18.4427H23.3131C21.6043 18.643 19.9371 19.1154 18.3723 19.8427C17.5885 20.209 17.1073 20.475 17.0867 20.4843C17.066 20.4937 17.0867 20.4843 17.0867 20.468C18.7777 19.1138 20.7285 18.1354 22.8135 17.5957L22.5844 17.3297H22.5706C20.3532 17.4528 18.2266 18.2674 16.4794 19.663C14.4877 23.6734 13.4158 28.0917 13.3444 32.585C14.8691 34.7664 17.3617 36.0301 19.9902 35.9543C19.9902 35.9543 20.8106 34.937 21.45 34.1133C19.9169 33.721 18.566 32.7969 17.6298 31.5C17.6458 31.5117 17.8727 31.668 18.2394 31.8733C18.264 31.9028 18.2945 31.9267 18.3287 31.9433C18.3578 31.9638 18.3884 31.9817 18.4204 31.997C18.4567 32.0137 18.4912 32.0341 18.5235 32.0577C19.0348 32.3446 19.5656 32.5941 20.1117 32.8043C21.15 33.2229 22.224 33.5432 23.32 33.761C24.2796 33.9452 25.2539 34.0389 26.2304 34.041C27.146 34.0409 28.0597 33.955 28.9598 33.7843C30.0439 33.5905 31.1026 33.2711 32.1154 32.8323C32.9903 32.4897 33.825 32.0491 34.6042 31.5187ZM29.9338 30.5223C28.9367 30.6109 27.9886 30.0671 27.5461 29.1531C27.1036 28.2391 27.2576 27.1422 27.9339 26.391C28.6101 25.6398 29.6699 25.3883 30.6027 25.7577C31.5354 26.1271 32.1498 27.0416 32.1498 28.0607C32.2003 29.3625 31.2096 30.4618 29.9315 30.5223H29.9338ZM21.9862 30.5223C20.7324 30.4111 19.7701 29.3422 19.7701 28.0607C19.7701 26.7791 20.7324 25.7103 21.9862 25.599C22.5638 25.6008 23.1161 25.8407 23.5171 26.264C23.9721 26.7448 24.2196 27.3908 24.2046 28.0583C24.2576 29.3624 23.2645 30.4643 21.984 30.5223H21.9862Z" fill="#2E3A59"/>
</svg>
