<svg width="55" height="56" viewBox="0 0 55 56" fill="none" xmlns="http://www.w3.org/2000/svg">
<path d="M27.5046 49.0957C21.8671 49.0957 21.2025 49.0654 19.0025 48.9674C17.2869 48.9099 15.5935 48.5548 13.9952 47.9174C11.2299 46.8217 9.04323 44.5944 7.96812 41.7784C7.36611 40.1451 7.04141 38.4195 7.00791 36.6754C6.87958 34.4401 6.87958 33.7074 6.87958 28.0117C6.87958 22.2554 6.90937 21.5834 7.00791 19.3551C7.04214 17.6133 7.36683 15.8901 7.96812 14.2591C9.04207 11.4393 11.2323 9.21012 14.0021 8.11772C15.6031 7.50219 17.296 7.17072 19.0071 7.13772C21.1956 7.01172 21.9152 7.01172 27.5046 7.01172C33.1879 7.01172 33.841 7.04205 36.0067 7.13772C37.7222 7.17101 39.4195 7.50244 41.0254 8.11772C43.7944 9.21136 45.9842 11.4401 47.0594 14.2591C47.6715 15.9138 47.9979 17.664 48.0242 19.4321C48.1525 21.6674 48.1525 22.3977 48.1525 28.0911C48.1525 33.7844 48.1204 34.5311 48.0242 36.7407C47.99 38.4865 47.6646 40.2137 47.0617 41.8484C45.9838 44.6664 43.7939 46.8944 41.0254 47.9897C39.4218 48.6015 37.728 48.9321 36.0158 48.9674C33.8273 49.0957 33.11 49.0957 27.5046 49.0957ZM27.4267 10.7054C21.8212 10.7054 21.2392 10.7334 19.0506 10.8337C17.7443 10.8513 16.4507 11.0968 15.2258 11.5594C13.4171 12.2641 11.9859 13.7154 11.2865 15.5541C10.8286 16.8147 10.5875 18.1463 10.5737 19.4904C10.4523 21.7514 10.4523 22.3441 10.4523 28.0117C10.4523 33.6117 10.4729 34.2907 10.5737 36.5377C10.5943 37.8682 10.8352 39.1856 11.2865 40.4344C11.987 42.2719 13.4179 43.7221 15.2258 44.4267C16.4498 44.8924 17.744 45.1379 19.0506 45.1524C21.269 45.2831 21.8533 45.2831 27.4267 45.2831C33.0481 45.2831 33.6302 45.2551 35.8004 45.1524C37.1076 45.1362 38.4022 44.8907 39.6275 44.4267C41.4252 43.716 42.8471 42.2691 43.5462 40.4391C44.0032 39.1773 44.2443 37.8451 44.259 36.5004H44.2842C44.3827 34.2697 44.3827 33.6747 44.3827 27.9744C44.3827 22.2741 44.3575 21.6744 44.259 19.4461C44.2384 18.1171 43.9974 16.8012 43.5462 15.5541C42.8487 13.7214 41.4266 12.2717 39.6275 11.5594C38.4025 11.0944 37.1077 10.8489 35.8004 10.8337C33.5844 10.7054 33.0046 10.7054 27.4267 10.7054ZM27.5046 38.7894C23.2191 38.7922 19.3541 36.1661 17.712 32.1358C16.0699 28.1055 16.9742 23.4648 20.0031 20.3781C23.0321 17.2914 27.5891 16.3667 31.5488 18.0352C35.5086 19.7036 38.0912 23.6367 38.0921 28.0001C38.0858 33.9525 33.3508 38.7778 27.5046 38.7894ZM27.5046 20.9954C23.7076 20.9954 20.6296 24.1294 20.6296 27.9954C20.6296 31.8614 23.7076 34.9954 27.5046 34.9954C31.3015 34.9954 34.3796 31.8614 34.3796 27.9954C34.3708 24.1331 31.2979 21.0044 27.5046 20.9954ZM38.5046 19.3317C37.142 19.3266 36.0408 18.1991 36.0433 16.8117C36.0459 15.4244 37.1512 14.3011 38.5137 14.3011C39.8763 14.3011 40.9816 15.4244 40.9842 16.8117C40.9848 17.4811 40.7236 18.1231 40.2583 18.596C39.793 19.0688 39.162 19.3336 38.5046 19.3317Z" fill="#2E3A59"/>
</svg>
