<svg width="55" height="55" viewBox="0 0 55 55" fill="none" xmlns="http://www.w3.org/2000/svg">
<path d="M27.5 50.4167C14.8435 50.4167 4.58334 40.1566 4.58334 27.5C4.58334 14.8435 14.8435 4.58337 27.5 4.58337C40.1565 4.58337 50.4167 14.8435 50.4167 27.5C50.4028 40.1508 40.1508 50.4028 27.5 50.4167ZM15.5994 24.1611C14.2281 24.1618 12.9961 24.9993 12.4908 26.2741C11.9856 27.5489 12.3093 29.003 13.3077 29.943C13.5716 30.1929 13.8752 30.3974 14.2061 30.548C14.1773 30.8827 14.1773 31.2193 14.2061 31.554C14.2061 36.6873 20.1988 40.8628 27.5642 40.8628C34.9296 40.8628 40.9246 36.6873 40.9246 31.554C40.9513 31.2192 40.9513 30.8828 40.9246 30.548C42.3155 29.8722 43.0512 28.3217 42.6949 26.8169C42.3386 25.3121 40.9859 24.2561 39.4396 24.2757H39.3181C38.4972 24.306 37.7163 24.6381 37.125 25.2084C34.5183 23.4358 31.4537 22.4567 28.3021 22.3896L29.7917 15.2396L34.6913 16.2709C34.8175 17.4329 35.798 18.3137 36.9669 18.315C37.0503 18.3149 37.1337 18.3104 37.2167 18.3013C38.4317 18.1793 39.3377 17.126 39.2766 15.9064C39.2155 14.6867 38.2087 13.7294 36.9875 13.7294C36.9009 13.7315 36.8144 13.7384 36.7286 13.75C36.0022 13.8272 35.3561 14.246 34.9892 14.8775L29.3792 13.75C29.3295 13.7394 29.2788 13.734 29.2279 13.734C28.8967 13.7379 28.6118 13.9696 28.5404 14.2932L26.8263 22.2521C23.6359 22.2973 20.5286 23.2764 17.8888 25.0686C17.27 24.484 16.4506 24.1592 15.5994 24.1611ZM27.9125 37.8675C27.7842 37.8675 27.6536 37.8675 27.5252 37.8675C27.3969 37.8675 27.2663 37.8675 27.1379 37.8675C25.236 37.8603 23.3873 37.239 21.8671 36.0961C21.7623 35.9696 21.7123 35.8065 21.7282 35.643C21.7441 35.4795 21.8246 35.3291 21.9519 35.2253C22.0627 35.1353 22.201 35.086 22.3438 35.0855C22.4866 35.0854 22.6251 35.1348 22.7356 35.2253C24.0203 36.1666 25.5728 36.6718 27.1654 36.6667C27.277 36.6667 27.3885 36.6667 27.5 36.6667C27.6352 36.6667 27.7727 36.6667 27.9079 36.6667C29.48 36.6693 31.013 36.177 32.2896 35.2596C32.4103 35.1364 32.5755 35.067 32.7479 35.067C32.9204 35.067 33.0856 35.1364 33.2063 35.2596C33.4548 35.5165 33.4497 35.9257 33.1948 36.1763V36.0846C31.6737 37.2353 29.8198 37.8603 27.9125 37.8652V37.8675ZM32.7869 32.2667H32.7502L32.7686 32.1773C31.7605 32.1085 30.9361 31.3476 30.7869 30.3483C30.6376 29.3491 31.2037 28.3805 32.1476 28.0201C33.0915 27.6597 34.1591 28.0046 34.7137 28.8491C35.2684 29.6936 35.1609 30.8103 34.4552 31.5334C34.0449 31.9813 33.4718 32.2455 32.8648 32.2667H32.7846H32.7869ZM22.1604 32.0834C20.8948 32.0834 19.8688 31.0574 19.8688 29.7917C19.8688 28.5261 20.8948 27.5 22.1604 27.5C23.4261 27.5 24.4521 28.5261 24.4521 29.7917C24.4521 31.0574 23.4261 32.0834 22.1604 32.0834Z" fill="#2E3A59"/>
</svg>
