<svg width="55" height="55" viewBox="0 0 55 55" fill="none" xmlns="http://www.w3.org/2000/svg">
<path d="M45.8219 15.3267C47.8762 14.0986 49.4133 12.1648 50.1463 9.88631C48.2159 11.0317 46.1038 11.8385 43.9015 12.2719C40.848 9.04189 36.0101 8.25584 32.0911 10.353C28.1721 12.4502 26.1422 16.9114 27.1356 21.2438C19.2285 20.8468 11.8616 17.1117 6.86813 10.968C4.26214 15.4629 5.59385 21.2089 9.91146 24.0992C8.35017 24.049 6.8235 23.6263 5.45876 22.8663C5.45876 22.9076 5.45876 22.9488 5.45876 22.9901C5.45966 27.6723 8.75961 31.7054 13.349 32.6334C11.9008 33.0274 10.3817 33.0854 8.90771 32.803C10.1984 36.8071 13.8888 39.5503 18.095 39.6321C14.6113 42.3664 10.309 43.8492 5.88042 43.8419C5.09546 43.8431 4.31111 43.7979 3.53146 43.7067C8.02861 46.5966 13.2627 48.1305 18.6083 48.1251C26.0454 48.1761 33.1926 45.2442 38.4513 39.9851C43.7099 34.726 46.6413 27.5785 46.5896 20.1415C46.5896 19.7153 46.5797 19.2913 46.5598 18.8696C48.4858 17.4777 50.1481 15.7533 51.4685 13.7776C49.6742 14.5729 47.7709 15.0951 45.8219 15.3267Z" fill="#2E3A59"/>
</svg>
