<svg width="36" height="36" viewBox="0 0 36 36" fill="none" xmlns="http://www.w3.org/2000/svg">
<path d="M14.0564 14.9663L34 14.9663C35.1046 14.9663 36 15.8617 36 16.9663V19.0337C36 20.1383 35.1046 21.0337 34 21.0337H14.0564C12.4141 21.0337 11.4718 22.9035 12.4488 24.2235L18.804 32.8102C19.781 34.1302 18.8386 36 17.1964 36H14.2638C13.6281 36 13.0302 35.6977 12.6533 35.1858L0.873058 19.1858C0.353798 18.4805 0.353798 17.5195 0.873055 16.8142L12.6533 0.814206C13.0302 0.302253 13.6281 0 14.2638 0L17.1964 0C18.8386 0 19.781 1.86979 18.804 3.18981L12.4488 11.7765C11.4718 13.0965 12.4141 14.9663 14.0564 14.9663Z" fill="white"/>
</svg>
