<svg width="37" height="37" viewBox="0 0 37 37" fill="none" xmlns="http://www.w3.org/2000/svg">
<path d="M14.5564 15.2671L34.5 15.2671C35.6046 15.2671 36.5 16.1625 36.5 17.2671V19.3345C36.5 20.4391 35.6046 21.3345 34.5 21.3345H14.5564C12.9141 21.3345 11.9718 23.2043 12.9488 24.5243L19.304 33.111C20.281 34.431 19.3386 36.3008 17.6964 36.3008H14.7638C14.1281 36.3008 13.5302 35.9985 13.1533 35.4866L1.37306 19.4866C0.853798 18.7813 0.853798 17.8202 1.37305 17.115L13.1533 1.11499C13.5302 0.603034 14.1281 0.300781 14.7638 0.300781L17.6964 0.300781C19.3386 0.300781 20.281 2.17057 19.304 3.4906L12.9488 12.0773C11.9718 13.3973 12.9141 15.2671 14.5564 15.2671Z" fill="black"/>
</svg>
