<svg width="10" height="10" viewBox="0 0 31 23" fill="none" xmlns="http://www.w3.org/2000/svg">
<path d="M17.2629 13.1452H1.81623C0.813155 13.1452 0 12.332 0 11.329C0 10.3259 0.813157 9.51274 1.81623 9.51274H17.2629C19.0751 9.51274 19.953 7.2957 18.6323 6.05502L16.4556 4.01037C15.1349 2.76969 16.0129 0.552656 17.825 0.552656H18.7929C19.3035 0.552656 19.7947 0.747952 20.166 1.09852L29.4601 9.87483C30.2959 10.6641 30.2959 11.9938 29.4601 12.7831L20.166 21.5594C19.7947 21.91 19.3035 22.1053 18.7929 22.1053H17.825C16.0129 22.1053 15.1349 19.8882 16.4556 18.6476L18.6323 16.6029C19.953 15.3622 19.075 13.1452 17.2629 13.1452Z" fill="white"/>
</svg>
