<svg width="22" height="31" viewBox="0 0 22 31" fill="none" xmlns="http://www.w3.org/2000/svg">
<path d="M8.96008 17.2629L8.96008 1.81623C8.96008 0.813155 9.77324 0 10.7763 0C11.7794 0 12.5925 0.813157 12.5925 1.81623L12.5925 17.2629C12.5925 19.0751 14.8096 19.953 16.0503 18.6323L18.0949 16.4556C19.3356 15.1349 21.5526 16.0129 21.5526 17.825V18.7929C21.5526 19.3035 21.3573 19.7947 21.0068 20.166L12.2305 29.4601C11.4412 30.2959 10.1114 30.2959 9.32218 29.4601L0.545861 20.166C0.195296 19.7947 0 19.3035 0 18.7929L0 17.825C0 16.0129 2.21704 15.1349 3.45772 16.4556L5.50236 18.6323C6.74305 19.953 8.96008 19.075 8.96008 17.2629Z" fill="black" fill-opacity="0.2"/>
<path d="M8.96008 17.2629L8.96008 1.81623C8.96008 0.813155 9.77324 0 10.7763 0C11.7794 0 12.5925 0.813157 12.5925 1.81623L12.5925 17.2629C12.5925 19.0751 14.8096 19.953 16.0503 18.6323L18.0949 16.4556C19.3356 15.1349 21.5526 16.0129 21.5526 17.825V18.7929C21.5526 19.3035 21.3573 19.7947 21.0068 20.166L12.2305 29.4601C11.4412 30.2959 10.1114 30.2959 9.32218 29.4601L0.545861 20.166C0.195296 19.7947 0 19.3035 0 18.7929L0 17.825C0 16.0129 2.21704 15.1349 3.45772 16.4556L5.50236 18.6323C6.74305 19.953 8.96008 19.075 8.96008 17.2629Z" fill="black"/>
</svg>
