<svg width="23" height="31" viewBox="0 0 23 31" fill="none" xmlns="http://www.w3.org/2000/svg">
<path d="M9.68384 18.0918L9.68384 2.64509C9.68384 1.64201 10.497 0.828857 11.5001 0.828857C12.5031 0.828857 13.3163 1.64201 13.3163 2.64509L13.3163 18.0918C13.3163 19.9039 15.5333 20.7819 16.774 19.4611L18.8187 17.2845C20.0594 15.9637 22.2764 16.8417 22.2764 18.6538V19.6217C22.2764 20.1323 22.0811 20.6236 21.7305 20.9948L12.9542 30.2889C12.1649 31.1248 10.8352 31.1248 10.0459 30.2889L1.26962 20.9948C0.919051 20.6236 0.723755 20.1323 0.723755 19.6217L0.723755 18.6538C0.723755 16.8417 2.94079 15.9637 4.18148 17.2845L6.22612 19.4611C7.4668 20.7819 9.68384 19.9039 9.68384 18.0918Z" fill="white"/>
</svg>
