<svg width="62" height="69" viewBox="0 0 62 69" fill="none" xmlns="http://www.w3.org/2000/svg">
<path fill-rule="evenodd" clip-rule="evenodd" d="M25.4534 27.5401C25.4392 27.5143 9.14689 31.5153 2.63268 37.1058C-0.969633 40.1974 -1.05089 44.2802 3.48362 44.2802C7.40393 44.2802 13.2389 41.9367 22.5138 35.2544C15.3862 41.342 9.76817 49.4386 8.43456 53.7688C6.84778 58.9204 8.98365 61.3867 13.5402 58.7831C17.2504 56.6637 22.2969 51.5015 27.8515 41.3487C24.3355 50.0086 23.6252 59.6483 24.3704 63.8745C24.8796 66.7621 26.3661 68.3035 28.0836 68.3488C29.4589 68.3848 30.9941 67.4249 32.3383 65.4174C35.0451 61.3734 36.8801 53.3398 36.0515 40.5773C37.3485 50.2945 41.8681 59.5744 44.793 62.0231C48.4905 65.1181 51.1298 62.4035 51.1364 56.9316C51.1425 51.9591 48.767 44.6471 41.9308 36.0258C47.3767 41.9084 54.6409 45.5916 57.7892 45.5916C61.3796 45.5916 62.6123 41.6052 59.8779 37.1058C57.3656 32.9731 51.4816 28.679 41.3892 26.6915C48.7602 27.8837 57.0074 25.0917 59.3364 21.9858C61.4284 19.1959 60.4372 14.7866 56.4741 13.2686C52.5583 11.7827 46.3777 13.2708 37.3666 20.1344C42.6734 15.1539 50.056 0 41.3119 0C30.3118 0 32.8798 18.5915 32.8798 18.5915C32.8798 18.5915 29.5876 3.70287 23.5968 3.70287C15.3372 3.70287 18.2705 16.4204 28.6251 21.9858C21.1359 18.8619 13.4056 16.7992 7.19682 18.8229C2.56162 20.2718 2.24235 24.2205 3.7157 25.6887C8.88141 30.8374 25.4534 27.5401 25.4534 27.5401Z" fill="white"/>
</svg>
