<?xml version="1.0" standalone="no"?>
<!DOCTYPE svg PUBLIC "-//W3C//DTD SVG 20010904//EN"
 "http://www.w3.org/TR/2001/REC-SVG-20010904/DTD/svg10.dtd">
<svg version="1.0" xmlns="http://www.w3.org/2000/svg"
 width="188.000000pt" height="91.000000pt" viewBox="0 0 188.000000 91.000000"
 preserveAspectRatio="xMidYMid meet">
<metadata>
Created by potrace 1.10, written by Peter Selinger 2001-2011
</metadata>
<g transform="translate(0.000000,91.000000) scale(0.100000,-0.100000)"
fill="#FFFFFF" stroke="none">
<path d="M1614 569 c-10 -11 -31 -28 -46 -37 -29 -17 -37 -32 -15 -32 8 0 12
-23 12 -81 0 -68 3 -83 19 -95 28 -20 59 -17 90 7 33 26 33 35 -1 34 -28 0
-28 1 -31 68 -3 66 -3 67 23 67 16 0 25 6 25 16 0 12 -6 15 -26 10 -26 -7 -27
-6 -21 28 7 41 -2 45 -29 15z"/>
<path d="M130 522 c0 -3 6 -10 14 -16 8 -6 32 -51 54 -100 21 -50 44 -92 51
-94 7 -2 23 22 38 57 14 34 29 61 32 61 4 0 17 -27 30 -60 16 -39 29 -60 38
-58 8 2 32 43 54 93 22 49 47 97 56 107 15 17 14 18 -25 18 -46 0 -47 -2 -31
-28 9 -14 7 -28 -8 -62 l-19 -44 -18 49 c-14 35 -16 53 -9 65 10 14 4 16 -53
16 -35 0 -64 -3 -64 -8 0 -4 4 -8 8 -8 18 0 29 -44 20 -72 -14 -39 -23 -35
-43 19 -13 33 -15 48 -7 51 29 9 7 17 -53 18 -36 0 -65 -2 -65 -4z"/>
<path d="M529 501 c-51 -51 -36 -146 26 -176 49 -23 73 -19 112 20 39 39 39
56 -1 30 -27 -18 -56 -14 -81 11 -32 32 -19 44 50 44 59 0 65 2 65 21 0 11
-13 34 -29 50 -41 41 -101 41 -142 0z m91 -10 c16 -32 12 -41 -20 -41 -22 0
-30 5 -30 18 0 18 18 42 32 42 4 0 12 -9 18 -19z"/>
<path d="M753 523 c-41 -4 -54 -15 -33 -28 6 -3 10 -42 10 -86 0 -46 -4 -79
-10 -79 -5 0 -10 -4 -10 -8 0 -4 27 -8 60 -7 57 0 72 6 50 20 -5 3 -10 35 -10
71 0 49 4 66 16 71 8 3 20 1 26 -5 14 -14 11 -136 -3 -140 -25 -9 -3 -17 51
-17 61 0 68 3 49 22 -5 5 -9 38 -7 74 3 56 5 64 23 64 18 0 20 -8 23 -72 2
-46 -1 -73 -8 -73 -5 0 -10 -3 -10 -7 0 -5 27 -8 60 -8 57 0 72 6 50 20 -5 3
-10 41 -10 84 0 63 -4 81 -18 94 -25 23 -65 21 -87 -3 l-18 -20 -22 20 c-28
26 -63 25 -92 -2 l-23 -21 0 21 c0 12 -3 21 -7 20 -5 -1 -27 -3 -50 -5z"/>
<path d="M1139 501 c-24 -24 -29 -38 -29 -76 0 -57 12 -80 50 -100 42 -22 74
-19 109 11 37 31 45 65 9 40 -30 -21 -54 -20 -78 4 -38 38 -27 50 45 50 l65 0
-6 28 c-16 73 -110 97 -165 43z m90 -13 c11 -30 6 -38 -25 -38 -24 0 -30 13
-18 44 9 23 33 20 43 -6z"/>
<path d="M1359 501 c-24 -24 -29 -38 -29 -76 0 -57 12 -80 50 -100 42 -22 74
-19 109 11 37 31 45 65 9 40 -30 -21 -54 -20 -78 4 -38 38 -27 50 46 50 l66 0
-6 28 c-17 73 -112 97 -167 43z m89 -24 c3 -23 0 -27 -22 -27 -26 0 -32 13
-20 45 10 25 39 13 42 -18z"/>
</g>
</svg>
